<mxfile host="app.diagrams.net" modified="2023-05-30T00:45:08.010Z" agent="Mozilla/5.0 (X11; Linux x86_64; rv:109.0) Gecko/20100101 Firefox/113.0" version="21.3.5" etag="8ayCjmBfi42mEGVLBRAE" type="github">
  <diagram name="Page-1" id="fS7as4rBKxz06T7Me8x6">
    <mxGraphModel>
      <root>
        <mxCell id="0" />
        <mxCell id="1" parent="0" />
      </root>
    </mxGraphModel>
  </diagram>
</mxfile>
